# xmcd CD database file
#
# Track frame offsets:
#	150
#	16326
#	35621
#	54232
#	65394
#	80492
#	95682
#	113779
#	128359
#	139922
#	154245
#	171699
#	185847
#	200004
#	212038
#	223517
#	248061
#	261041
#	270901
#	282217
#	295536
#	311592
#	327114
#	340328
#
# Disc length: 4703 seconds
#
# Revision: 0
# Processed by: cddbd v1.5.2PL0 Copyright (c) Steve Scherf et al.
# Submitted via: CDex 1.70beta2
#
DISCID=67125d18
DTITLE=Nina Simone - Classic Hits
DYEAR=2009
DGENRE=Jazz
TTITLE0=MY BABY JUST CARES FOR ME
TTITLE1=LITTEL GIRK BLUE
TTITLE2=I LOVES YOU PORGY
TTITLE3=HE NEEDS ME
TTITLE4=LOVE ME OR LEAVE ME
TTITLE5=BLUE PRELUDE
TTITLE6=MOOD INDIGO
TTITLE7=WILOW WEEP FOR ME
TTITLE8=CAN´T GET OUT OF THIS MOOD
TTITLE9=DON´T SMOKE IN BED
TTITLE10=PLAIN GOLD RING
TTITLE11=AFRICAN MAILMAN
TTITLE12=HE´S GOT THE WHOLE WORLD IN HIS HANDS
TTITLE13=NOBODY KNOWS YOU WHEN YOU´RE DOWN AND OUT
TTITLE14=THAT´S HIM OVER THERE
TTITLE15=GOOD BAIT
TTITLE16=CHILDREN GO WHERE I SEND YOU
TTITLE17=YOU´VE BEEN GONE TOO LONG
TTITLE18=THEME FROM "THE MIDDLE OF THE NIGHT"
TTITLE19=THE OTHER WOMAN
TTITLE20=BLACK IS THE COLOR OF MY TRUE LOVE´S HAIR
TTITLE21=FINE AND MELLOW
TTITLE22=SUMMERTIME (instrumental)
TTITLE23=SUMMERTIME
EXTD=YEAR: 2009
EXTT0=
EXTT1=
EXTT2=
EXTT3=
EXTT4=
EXTT5=
EXTT6=
EXTT7=
EXTT8=
EXTT9=
EXTT10=
EXTT11=
EXTT12=
EXTT13=
EXTT14=
EXTT15=
EXTT16=
EXTT17=
EXTT18=
EXTT19=
EXTT20=
EXTT21=
EXTT22=
EXTT23=
PLAYORDER=
